<?xml version="1.0" standalone="no"?>
<!DOCTYPE svg PUBLIC "-//W3C//DTD SVG 20010904//EN"
 "http://www.w3.org/TR/2001/REC-SVG-20010904/DTD/svg10.dtd">
<svg version="1.0" xmlns="http://www.w3.org/2000/svg"
 width="300.000000pt" height="300.000000pt" viewBox="0 0 300.000000 300.000000"
 preserveAspectRatio="xMidYMid meet">
<metadata>
Created by potrace 1.10, written by Peter Selinger 2001-2011
</metadata>
<g transform="translate(0.000000,300.000000) scale(0.100000,-0.100000)"
fill="#000000" stroke="none">
<path d="M520 2061 c-14 -4 -116 -23 -227 -41 -176 -30 -203 -37 -203 -52 0
-10 -7 -18 -16 -18 -14 0 -15 -7 -10 -42 9 -58 151 -1032 179 -1231 l23 -159
179 3 c276 4 260 3 257 22 -2 12 4 17 18 17 16 0 20 5 16 18 -3 9 -10 39 -16
66 -14 62 -22 75 -30 50 -5 -12 -13 12 -23 70 -16 84 -17 129 -3 70 4 -15 28
-54 53 -88 61 -80 72 -97 39 -62 -43 45 -38 26 7 -35 l42 -56 62 18 c35 9 76
20 93 24 l30 7 0 -59 c0 -32 3 -75 7 -97 l6 -39 116 8 c301 19 296 19 295 38
-1 10 5 17 17 17 17 0 18 7 13 98 -7 132 -17 166 -24 82 -5 -59 -6 -52 -14 68
-4 73 -5 136 -2 139 3 3 30 -11 60 -31 74 -49 125 -66 214 -70 66 -4 78 -8
106 -34 29 -27 38 -30 130 -36 81 -5 103 -3 126 11 28 16 29 16 62 -19 44 -47
131 -101 197 -123 127 -42 385 6 476 88 10 10 27 16 36 15 9 -2 24 4 35 12 19
14 19 14 0 -7 -10 -13 -22 -21 -26 -18 -4 2 -24 -13 -45 -35 -42 -43 -120 -81
-215 -106 -49 -12 -88 -15 -169 -10 -161 10 -169 10 -176 18 -4 4 4 4 17 2 12
-3 1 6 -25 20 -27 15 -53 24 -58 21 -4 -3 -25 11 -46 31 l-38 37 38 -32 c53
-44 58 -39 6 8 -37 33 -45 36 -57 24 -12 -12 -12 -17 4 -35 19 -21 19 -21 -4
-9 -16 9 -22 19 -19 32 5 17 -1 19 -46 19 -69 1 -229 11 -244 15 -7 3 -13 16
-13 30 0 22 -4 25 -33 25 -59 0 -151 21 -201 46 -27 14 -51 22 -54 19 -4 -3 4
-8 16 -12 12 -3 22 -10 22 -15 0 -6 -10 -4 -22 5 -13 8 -22 20 -21 25 1 6 -4
16 -12 22 -13 10 -15 8 -15 -13 0 -16 10 -34 28 -47 15 -12 27 -27 27 -33 0
-18 96 -46 158 -47 56 0 57 0 57 -29 0 -28 1 -28 73 -34 39 -4 122 -9 182 -13
95 -5 113 -9 135 -29 86 -78 181 -110 325 -110 122 0 183 15 294 68 81 40 180
137 218 216 57 118 38 281 -44 372 -29 32 -32 40 -19 45 9 3 16 12 16 20 0 8
7 14 15 14 20 0 19 21 -3 101 -46 164 -156 259 -336 290 -105 18 -275 -5 -324
-44 -7 -5 -15 -8 -18 -5 -2 3 8 106 24 229 16 123 28 225 27 227 -1 1 -100
-10 -219 -25 -193 -24 -216 -29 -216 -45 0 -10 -6 -18 -14 -18 -10 0 -15 -23
-20 -82 -4 -46 -9 -104 -13 -129 l-5 -46 -97 -5 c-79 -4 -108 -10 -162 -35
-37 -17 -69 -36 -73 -42 -12 -18 -26 -12 -26 11 0 37 -40 106 -81 141 -64 55
-162 73 -234 43 -35 -15 -51 -41 -17 -29 9 3 4 -5 -13 -18 -16 -13 -36 -30
-43 -39 -19 -23 -35 -53 -25 -47 6 4 8 -16 5 -46 -5 -67 23 -129 78 -174 l40
-31 -37 -22 -36 -21 7 -125 c6 -115 5 -124 -12 -124 -14 0 -19 9 -21 38 -2 20
-4 48 -5 62 -2 14 -4 49 -4 78 -2 39 -6 52 -17 52 -9 0 -15 9 -15 23 0 13 -6
29 -12 37 -7 8 -2 6 12 -6 14 -11 35 -18 48 -16 22 3 22 4 -10 40 -17 20 -35
36 -38 35 -13 -4 -18 144 -7 187 4 14 -2 7 -13 -15 -11 -22 -20 -54 -20 -72 0
-33 -15 -52 -23 -31 -3 7 -6 2 -6 -12 0 -34 23 -97 45 -121 13 -15 15 -22 6
-28 -9 -5 -9 -23 -3 -67 5 -32 9 -50 10 -39 2 20 2 20 11 0 5 -11 9 -38 9 -59
l1 -39 -25 23 c-24 23 -35 47 -15 35 25 -16 4 18 -60 98 -38 47 -70 89 -70 91
0 3 18 33 40 67 47 73 52 98 9 49 -22 -25 -16 -12 20 48 28 46 48 89 45 94 -4
6 -2 8 3 5 13 -8 46 40 38 54 -4 5 -1 8 7 7 7 -2 12 5 12 14 -1 10 3 16 10 15
6 -1 10 6 10 15 -1 10 2 16 6 13 4 -3 22 18 40 45 18 28 34 50 37 50 5 0 2 -5
-34 -62 -13 -21 -19 -38 -13 -38 5 0 41 47 80 105 l70 105 -227 1 c-126 1
-252 3 -280 4 -29 1 -53 -1 -53 -6 0 -4 -6 -14 -14 -21 -19 -19 -32 -63 -16
-53 14 9 6 -22 -16 -67 -8 -15 -14 -35 -14 -45 1 -15 30 49 70 152 5 13 7 4 5
-25 -4 -55 -64 -190 -75 -169 -4 8 -11 50 -14 94 -4 53 -3 73 3 60 8 -16 10
-13 10 20 1 54 -10 145 -18 144 -3 0 -17 -4 -31 -8z m8 -223 c12 -95 22 -185
22 -200 0 -16 3 -28 8 -28 4 1 36 75 72 166 l65 165 182 -3 c101 -2 183 -5
183 -7 0 -5 -178 -283 -262 -408 -37 -56 -68 -105 -68 -108 0 -3 56 -72 123
-153 68 -81 145 -174 172 -207 68 -85 67 -85 61 -45 -3 19 -8 89 -11 155 -3
66 -8 134 -11 151 l-6 31 109 17 c59 9 119 16 133 16 32 0 41 7 69 52 30 50
110 121 166 147 25 11 76 26 113 33 68 11 87 9 202 -23 12 -3 17 26 29 164 12
139 17 167 30 167 9 0 66 7 126 15 134 18 146 18 140 3 -2 -7 -18 -125 -35
-262 -17 -137 -33 -253 -36 -258 -12 -19 9 -5 42 27 78 78 207 120 344 113
154 -9 274 -87 314 -205 20 -59 20 -63 -1 -63 -10 0 -81 -15 -159 -33 l-141
-33 -9 30 c-12 42 -51 55 -107 36 -45 -16 -59 -43 -30 -58 10 -6 81 -15 158
-21 157 -11 227 -30 280 -73 79 -66 109 -204 65 -306 -87 -202 -447 -291 -653
-160 -48 31 -137 124 -137 143 0 6 64 35 143 64 78 30 147 56 154 58 6 2 14
-9 18 -26 10 -47 51 -74 102 -68 56 6 93 31 93 62 0 31 -30 39 -199 54 -163
15 -221 32 -273 82 -23 21 -43 39 -45 39 -1 0 -3 -16 -3 -35 0 -38 -30 -288
-35 -293 -2 -2 -54 -1 -115 3 l-112 8 6 40 c5 31 4 38 -7 34 -37 -14 -109 -18
-161 -8 -89 16 -159 56 -223 125 -44 47 -55 55 -50 36 3 -14 9 -106 13 -205
l7 -180 -29 0 c-16 -1 -77 -4 -135 -8 l-106 -8 -6 68 c-4 37 -7 85 -7 106 0
20 -1 37 -2 37 -2 0 -52 -13 -112 -29 -102 -28 -111 -29 -122 -13 -7 9 -65 83
-130 163 -66 80 -129 159 -142 175 -13 16 -21 21 -18 11 3 -9 17 -79 31 -155
14 -75 33 -170 41 -211 8 -40 13 -75 12 -77 -8 -7 -283 -5 -285 2 -1 5 -14 88
-27 184 -108 748 -157 1077 -160 1087 -5 13 -1 14 174 44 69 11 127 23 129 25
13 12 19 -11 39 -168z m-383 108 c8 4 14 -10 18 -43 3 -26 12 -95 21 -153 9
-58 20 -136 26 -175 5 -38 17 -113 25 -165 8 -52 16 -111 18 -130 3 -19 23
-165 47 -325 33 -227 46 -294 60 -309 16 -17 33 -19 143 -18 68 1 136 6 151
11 24 10 26 9 26 -19 0 -17 5 -30 10 -30 6 0 8 17 5 43 l-5 42 11 -43 c9 -35
8 -45 -6 -59 -13 -13 -18 -14 -25 -3 -6 10 -47 12 -181 9 l-173 -4 -7 40 c-4
22 -12 78 -19 125 -50 352 -66 460 -85 585 -9 55 -18 127 -22 160 -4 39 -8 53
-13 40 -4 -11 -7 4 -6 35 0 57 -18 215 -34 285 -19 86 -22 121 -10 108 7 -6
18 -9 25 -7z m1708 -13 c-7 -2 -13 -11 -13 -19 0 -8 6 -11 16 -7 12 4 14 0 10
-18 -3 -13 -10 -73 -16 -134 -9 -102 -20 -138 -37 -122 -3 4 -1 64 5 135 7 74
8 128 2 130 -11 4 21 42 35 41 5 0 4 -3 -2 -6z m-575 -223 c125 -90 55 -290
-101 -290 -82 0 -157 75 -157 157 0 99 63 163 161 163 46 0 63 -5 97 -30z
m127 -150 c9 0 26 5 38 11 12 6 4 -5 -18 -24 -22 -20 -43 -36 -47 -37 -3 0 -6
21 -6 48 0 37 2 42 9 25 4 -13 16 -23 24 -23z m775 -25 c5 3 11 1 15 -4 5 -9
-33 -37 -40 -29 -2 2 -1 24 3 48 6 42 7 43 10 12 2 -18 7 -30 12 -27z m657
-287 c-5 -16 -2 -19 16 -14 20 5 20 4 5 -8 -10 -7 -15 -16 -11 -19 3 -4 1 -7
-4 -7 -6 0 -13 5 -15 11 -2 7 -17 7 -47 0 -50 -11 -107 3 -81 19 8 6 22 10 31
10 8 0 33 9 55 19 44 21 58 18 51 -11z m-16 -71 c-6 -8 -7 -17 -3 -21 4 -4 -6
-2 -21 5 -29 13 -20 29 17 29 14 0 16 -3 7 -13z m-645 -214 c57 -26 73 -38 59
-41 -11 -2 -31 -13 -44 -23 -13 -11 -31 -19 -40 -19 -9 1 -2 7 14 14 l30 13
-35 8 c-19 5 -41 8 -49 6 -7 -1 -10 2 -6 8 3 6 1 11 -4 11 -14 0 -14 -37 -1
-45 6 -3 10 0 11 7 0 7 4 4 8 -7 9 -22 -3 -35 -31 -35 -14 0 -16 8 -14 43 3
40 15 97 21 97 1 0 38 -17 81 -37z m-1431 -106 c117 -145 120 -146 224 -122
53 12 85 15 91 9 6 -6 14 -43 19 -84 7 -51 15 -78 27 -87 18 -13 148 -10 247
7 48 7 49 7 44 -17 -4 -21 -1 -24 16 -19 14 3 17 2 9 -6 -5 -5 -43 -12 -84
-14 -40 -2 -119 -8 -176 -12 -68 -5 -106 -4 -110 3 -3 5 -8 51 -10 101 l-4 90
-87 -23 c-125 -33 -152 -29 -156 23 0 6 -22 38 -49 70 -63 75 -74 86 -53 52
10 -16 13 -28 8 -28 -10 0 -26 38 -23 56 1 5 -6 19 -17 30 -23 25 -38 96 -19
88 7 -3 54 -55 103 -117z m2172 16 c-2 -21 -4 -4 -4 37 0 41 2 58 4 38 2 -21
2 -55 0 -75z m-407 39 c26 -12 21 -30 -10 -37 -30 -7 -76 2 -66 12 3 4 1 12
-5 20 -9 10 -4 13 27 12 22 0 46 -3 54 -7z m-798 -207 c-5 -29 -10 -30 -36
-10 -19 15 -19 15 2 15 12 0 22 5 22 10 0 6 4 10 9 10 4 0 6 -11 3 -25z m-689
-22 c-7 -2 -13 -19 -13 -36 -1 -27 -2 -29 -11 -14 -5 9 -20 17 -32 17 -18 1
-16 4 13 19 19 11 40 19 45 19 6 0 4 -2 -2 -5z"/>
<path d="M358 1941 c-53 -9 -99 -19 -102 -22 -3 -3 24 -208 59 -455 36 -247
75 -518 87 -601 l22 -153 99 0 99 0 -6 24 c-10 41 -44 216 -61 316 -22 136
-37 200 -47 206 -15 10 -8 -48 32 -248 22 -111 40 -216 40 -234 0 -30 -2 -32
-42 -36 -63 -6 -86 1 -92 28 -7 25 -95 622 -121 819 -8 61 -19 135 -25 165 -8
52 -13 110 -11 137 1 13 46 27 118 37 34 5 44 3 51 -11 6 -10 17 -83 26 -163
24 -202 36 -279 47 -286 17 -10 14 18 -42 414 -7 47 -17 81 -23 81 -6 -1 -55
-9 -108 -18z"/>
<path d="M2033 1897 l-82 -10 -5 -41 c-3 -23 -9 -82 -15 -132 -6 -50 -11 -114
-11 -143 l0 -51 -39 19 c-64 33 -158 46 -232 32 -82 -16 -134 -47 -197 -116
-63 -69 -86 -133 -85 -236 1 -170 115 -303 287 -339 66 -13 171 0 203 27 16
13 13 14 -27 6 -25 -4 -79 -8 -120 -8 -60 0 -86 6 -130 27 -251 120 -252 466
0 591 71 35 180 38 264 6 30 -12 62 -19 70 -16 21 8 33 61 46 207 6 69 16 130
20 135 5 6 24 12 42 13 18 1 41 5 51 8 11 3 20 -1 24 -12 7 -18 -19 -280 -43
-424 -7 -47 -16 -110 -19 -140 -3 -30 -10 -86 -15 -125 -5 -38 -14 -124 -21
-190 -14 -141 -20 -157 -57 -154 -38 4 -52 17 -52 47 0 37 -19 14 -27 -31 l-6
-37 40 0 c22 0 54 -3 71 -6 30 -6 31 -5 36 37 3 24 15 116 26 204 27 216 45
360 75 615 14 118 28 223 31 233 3 10 0 16 -8 15 -7 -1 -50 -6 -95 -11z"/>
<path d="M736 1892 c-3 -5 -21 -49 -42 -98 -20 -49 -52 -127 -71 -174 -44
-106 -64 -170 -54 -170 9 0 33 52 125 270 l61 145 93 3 c50 1 92 -1 92 -6 0
-4 -29 -52 -65 -105 -36 -54 -65 -99 -65 -102 0 -2 -29 -47 -65 -100 -90 -134
-91 -142 -27 -216 72 -83 330 -397 350 -426 l23 -33 -24 -9 c-14 -5 -42 -14
-63 -20 -80 -21 -90 -20 -109 6 -10 13 -26 32 -34 42 -9 10 -27 33 -41 51 -14
18 -30 38 -35 44 -6 6 -39 47 -75 91 -36 44 -69 85 -75 92 -5 6 -27 32 -48 57
-42 50 -70 63 -41 19 16 -26 323 -413 349 -441 10 -11 32 -8 125 17 62 16 114
32 117 35 4 3 -137 176 -331 406 -11 14 -42 51 -68 82 -27 31 -48 61 -48 66 0
5 27 49 59 98 32 49 101 155 154 235 l94 146 -128 2 c-70 1 -130 -3 -133 -7z"/>
<path d="M2350 1506 c-106 -29 -184 -87 -224 -168 -36 -71 -37 -179 -3 -229
34 -51 92 -78 189 -89 45 -5 126 -14 178 -20 114 -13 144 -30 148 -84 7 -81
-118 -141 -213 -102 -19 8 -41 28 -50 46 -12 23 -21 30 -33 24 -9 -4 -59 -23
-110 -42 l-93 -35 38 -39 c97 -100 261 -134 418 -87 104 31 185 84 222 146 24
41 28 59 28 119 -1 58 -6 78 -28 116 -44 76 -119 101 -329 114 -88 5 -114 10
-140 28 -70 46 -32 127 65 141 50 8 110 -12 126 -43 10 -19 12 -19 123 8 124
30 124 29 82 93 -31 48 -101 93 -165 106 -65 14 -173 13 -229 -3z m260 -35
c54 -21 120 -74 120 -98 0 -18 -28 -30 -102 -44 -60 -11 -68 -10 -84 5 -51 52
-170 48 -225 -6 -22 -22 -29 -39 -29 -67 0 -64 50 -96 162 -106 35 -2 92 -7
128 -10 172 -14 240 -69 240 -195 0 -107 -54 -175 -177 -225 -116 -46 -264
-50 -346 -9 -49 25 -98 65 -95 76 4 12 114 58 137 58 9 0 21 -8 28 -18 28 -45
117 -64 194 -41 90 27 133 126 80 183 -33 35 -65 44 -232 60 -229 23 -283 58
-283 186 0 53 4 74 26 110 85 145 286 206 458 141z"/>
<path d="M1645 1435 c-22 -8 -59 -34 -82 -58 -85 -90 -84 -217 4 -304 84 -85
211 -91 294 -16 46 41 58 81 60 185 1 89 -13 124 -68 160 -75 49 -135 59 -208
33z m164 -35 c21 -10 51 -33 65 -51 26 -31 27 -34 20 -128 -4 -53 -10 -103
-15 -112 -16 -32 -89 -72 -138 -77 -65 -6 -117 13 -162 59 -68 70 -77 164 -22
243 58 82 166 110 252 66z"/>
<path d="M1650 1363 c-8 -3 -30 -19 -48 -36 -99 -94 -34 -257 103 -257 38 0
61 6 86 23 33 22 34 25 43 115 9 102 3 117 -56 148 -27 14 -99 18 -128 7z
m110 -38 c42 -22 52 -47 45 -113 -9 -73 -13 -89 -28 -95 -9 -3 -11 15 -10 69
2 65 -1 75 -20 89 -28 20 -87 19 -115 -1 -34 -24 -46 -12 -21 20 37 47 95 59
149 31z m-42 -85 c17 -11 32 -24 32 -30 0 -15 -7 -12 -35 16 -20 20 -34 25
-60 22 -18 -2 -31 0 -29 4 9 15 59 8 92 -12z m-23 -12 c22 -10 25 -17 25 -60
0 -56 -17 -70 -59 -47 -49 28 -64 101 -23 112 28 8 30 7 57 -5z m45 -93 c0
-36 -3 -45 -17 -44 -11 0 -13 3 -5 6 7 2 12 22 12 44 0 21 2 39 5 39 3 0 5
-20 5 -45z"/>
<path d="M1277 1340 c-15 -5 -57 -12 -93 -15 l-65 -7 6 -52 c11 -103 27 -345
32 -481 3 -77 6 -140 6 -141 1 -1 44 1 95 4 l93 5 -5 96 c-3 53 -8 166 -11
251 -7 213 -16 350 -24 349 -3 0 -19 -4 -34 -9z m14 -32 c7 -14 33 -597 27
-609 -7 -17 -86 -33 -111 -23 -16 6 -33 170 -43 408 -3 82 -8 154 -11 161 -8
23 16 53 44 58 35 5 93 8 94 5z"/>
<path d="M1151 1697 c-48 -17 -74 -56 -74 -112 0 -38 5 -52 30 -76 82 -82 215
-20 200 93 -10 77 -82 120 -156 95z m88 -32 c80 -41 47 -165 -44 -165 -90 0
-126 122 -48 164 36 19 57 20 92 1z"/>
</g>
</svg>
